<?xml version="1.0" encoding="UTF-8" standalone="no"?>
<!-- Generator: Adobe Illustrator 19.0.0, SVG Export Plug-In . SVG Version: 6.00 Build 0)  -->

<svg
   xmlns:dc="http://purl.org/dc/elements/1.1/"
   xmlns:cc="http://creativecommons.org/ns#"
   xmlns:rdf="http://www.w3.org/1999/02/22-rdf-syntax-ns#"
   xmlns:svg="http://www.w3.org/2000/svg"
   xmlns="http://www.w3.org/2000/svg"
   xmlns:sodipodi="http://sodipodi.sourceforge.net/DTD/sodipodi-0.dtd"
   xmlns:inkscape="http://www.inkscape.org/namespaces/inkscape"
   version="1.1"
   id="Layer_1"
   x="0px"
   y="0px"
   viewBox="0 0 512 512"
   style="enable-background:new 0 0 512 512;"
   xml:space="preserve"
   sodipodi:docname="bardage.svg"
   inkscape:version="0.92+devel unknown"><metadata
     id="metadata4677"><rdf:RDF><cc:Work
         rdf:about=""><dc:format>image/svg+xml</dc:format><dc:type
           rdf:resource="http://purl.org/dc/dcmitype/StillImage" /></cc:Work></rdf:RDF></metadata><defs
     id="defs4675" /><sodipodi:namedview
     pagecolor="#ffffff"
     bordercolor="#666666"
     inkscape:document-rotation="0"
     borderopacity="1"
     objecttolerance="10"
     gridtolerance="10"
     guidetolerance="10"
     inkscape:pageopacity="0"
     inkscape:pageshadow="2"
     inkscape:window-width="1920"
     inkscape:window-height="1016"
     id="namedview4673"
     showgrid="false"
     inkscape:zoom="1.5800781"
     inkscape:cx="256"
     inkscape:cy="256"
     inkscape:window-x="0"
     inkscape:window-y="0"
     inkscape:window-maximized="1"
     inkscape:current-layer="Layer_1" />
     <g transform="translate(420) rotate(90 50 50)">
     <path
     style="fill:#311c10;fill-opacity:1;stroke:#c64c00;stroke-opacity:1"
     d="M123.586,512h88.276V344.276h-88.276V512z"
     id="path4572" /><path
     style="fill:#311c10;fill-opacity:1;stroke:#c64c00;stroke-opacity:1"
     d="M123.586,344.276h88.276V0h-88.276V344.276z"
     id="path4574" /><path
     style="fill:#311c10;fill-opacity:1;stroke:#c64c00;stroke-opacity:1"
     d="M388.414,512h88.276V247.172h-88.276V512z"
     id="path4576" /><g
     id="g4582"><path
       style="fill:#311c10;fill-opacity:1;stroke:#c64c00;stroke-opacity:1"
       d="M388.414,247.172h88.276V0h-88.276V247.172z"
       id="path4578" /><path
       style="fill:#311c10;fill-opacity:1;stroke:#c64c00;stroke-opacity:1"
       d="M211.862,512h88.276V158.897h-88.276V512z"
       id="path4580" /></g><path
     style="fill:#311c10;fill-opacity:1;stroke:#c64c00;stroke-opacity:1"
     d="M211.862,158.897h88.276V0h-88.276V158.897z"
     id="path4584" /><path
     style="fill:#311c10;fill-opacity:1;stroke:#c64c00;stroke-opacity:1"
     d="M300.138,512h88.276V0h-88.276V512z"
     id="path4586" /><g
     id="g4602"><path
       style="fill:#311c10;fill-opacity:1;stroke:#c64c00;stroke-opacity:1"
       d="M35.31,512h88.276V0H35.31V512z"
       id="path4588" /><path
       style="fill:#c64c00;fill-opacity:1"
       d="M194.207,370.759c0-5.297-3.531-8.828-8.828-8.828s-8.828,3.531-8.828,8.828   s3.531,8.828,8.828,8.828S194.207,376.055,194.207,370.759"
       id="path4590" /><path
       style="fill:#c64c00;fill-opacity:1"
       d="M158.897,370.759c0-5.297-3.531-8.828-8.828-8.828s-8.828,3.531-8.828,8.828   s3.531,8.828,8.828,8.828S158.897,376.055,158.897,370.759"
       id="path4592" /><path
       style="fill:#c64c00;fill-opacity:1"
       d="M141.241,317.793c0,5.297,3.531,8.828,8.828,8.828s8.828-3.531,8.828-8.828   s-3.531-8.828-8.828-8.828S141.241,312.497,141.241,317.793"
       id="path4594" /><path
       style="fill:#c64c00;fill-opacity:1"
       d="M176.552,317.793c0,5.297,3.531,8.828,8.828,8.828s8.828-3.531,8.828-8.828   s-3.531-8.828-8.828-8.828S176.552,312.497,176.552,317.793"
       id="path4596" /><path
       style="fill:#c64c00;fill-opacity:1"
       d="M459.034,273.655c0-5.297-3.531-8.828-8.828-8.828c-5.297,0-8.828,3.531-8.828,8.828   c0,5.297,3.531,8.828,8.828,8.828C455.503,282.483,459.034,278.952,459.034,273.655"
       id="path4598" /><path
       style="fill:#c64c00;fill-opacity:1"
       d="M423.724,273.655c0-5.297-3.531-8.828-8.828-8.828s-8.828,3.531-8.828,8.828   c0,5.297,3.531,8.828,8.828,8.828S423.724,278.952,423.724,273.655"
       id="path4600" /></g><g
     id="g4608"><path
       style="fill:#c64c00;fill-opacity:1"
       d="M406.069,220.69c0,5.297,3.531,8.828,8.828,8.828s8.828-3.531,8.828-8.828s-3.531-8.828-8.828-8.828   S406.069,215.393,406.069,220.69"
       id="path4604" /><path
       style="fill:#c64c00;fill-opacity:1"
       d="M441.379,220.69c0,5.297,3.531,8.828,8.828,8.828c5.297,0,8.828-3.531,8.828-8.828   s-3.531-8.828-8.828-8.828C444.91,211.862,441.379,215.393,441.379,220.69"
       id="path4606" /></g><g
     id="g4614"><path
       style="fill:#c64c00;fill-opacity:1"
       d="M282.483,185.379c0-5.297-3.531-8.828-8.828-8.828c-5.297,0-8.828,3.531-8.828,8.828   s3.531,8.828,8.828,8.828C278.952,194.207,282.483,190.676,282.483,185.379"
       id="path4610" /><path
       style="fill:#c64c00;fill-opacity:1"
       d="M247.172,185.379c0-5.297-3.531-8.828-8.828-8.828s-8.828,3.531-8.828,8.828   s3.531,8.828,8.828,8.828S247.172,190.676,247.172,185.379"
       id="path4612" /></g><g
     id="g4620"><path
       style="fill:#c64c00;fill-opacity:1"
       d="M229.517,132.414c0,5.297,3.531,8.828,8.828,8.828s8.828-3.531,8.828-8.828   c0-5.297-3.531-8.828-8.828-8.828S229.517,127.117,229.517,132.414"
       id="path4616" /><path
       style="fill:#c64c00;fill-opacity:1"
       d="M264.828,132.414c0,5.297,3.531,8.828,8.828,8.828c5.297,0,8.828-3.531,8.828-8.828   c0-5.297-3.531-8.828-8.828-8.828C268.359,123.586,264.828,127.117,264.828,132.414"
       id="path4618" /></g><g
     id="g4630"><path
       style="fill:#c64c00;fill-opacity:1"
       d="M105.931,26.483c0-5.297-3.531-8.828-8.828-8.828c-5.297,0-8.828,3.531-8.828,8.828   s3.531,8.828,8.828,8.828C102.4,35.31,105.931,31.779,105.931,26.483"
       id="path4622" /><path
       style="fill:#c64c00;fill-opacity:1"
       d="M70.621,26.483c0-5.297-3.531-8.828-8.828-8.828s-8.828,3.531-8.828,8.828s3.531,8.828,8.828,8.828   S70.621,31.779,70.621,26.483"
       id="path4624" /><path
       style="fill:#c64c00;fill-opacity:1"
       d="M105.931,485.517c0-5.297-3.531-8.828-8.828-8.828c-5.297,0-8.828,3.531-8.828,8.828   s3.531,8.828,8.828,8.828C102.4,494.345,105.931,490.814,105.931,485.517"
       id="path4626" /><path
       style="fill:#c64c00;fill-opacity:1"
       d="M70.621,485.517c0-5.297-3.531-8.828-8.828-8.828s-8.828,3.531-8.828,8.828s3.531,8.828,8.828,8.828   S70.621,490.814,70.621,485.517"
       id="path4628" /></g><g
     id="g4640"><path
       style="fill:#c64c00;fill-opacity:1"
       d="M370.759,26.483c0-5.297-3.531-8.828-8.828-8.828s-8.828,3.531-8.828,8.828s3.531,8.828,8.828,8.828   S370.759,31.779,370.759,26.483"
       id="path4632" /><path
       style="fill:#c64c00;fill-opacity:1"
       d="M335.448,26.483c0-5.297-3.531-8.828-8.828-8.828s-8.828,3.531-8.828,8.828s3.531,8.828,8.828,8.828   S335.448,31.779,335.448,26.483"
       id="path4634" /><path
       style="fill:#9E5A23;"
       d="M370.759,485.517c0-5.297-3.531-8.828-8.828-8.828s-8.828,3.531-8.828,8.828   s3.531,8.828,8.828,8.828S370.759,490.814,370.759,485.517"
       id="path4636" /><path
       style="fill:#c64c00;fill-opacity:1"
       d="M335.448,485.517c0-5.297-3.531-8.828-8.828-8.828s-8.828,3.531-8.828,8.828   s3.531,8.828,8.828,8.828S335.448,490.814,335.448,485.517"
       id="path4638" /></g><g
     id="g4642" /><g
     id="g4644" /><g
     id="g4646" /><g
     id="g4648" /><g
     id="g4650" /><g
     id="g4652" /><g
     id="g4654" /><g
     id="g4656" /><g
     id="g4658" /><g
     id="g4660" /><g
     id="g4662" /><g
     id="g4664" /><g
     id="g4666" /><g
     id="g4668" /><g
     id="g4670" /></g></svg>
