<?xml version="1.0" encoding="UTF-8" standalone="no"?>
<!-- Generator: Adobe Illustrator 16.0.0, SVG Export Plug-In . SVG Version: 6.00 Build 0)  -->

<svg
   xmlns:dc="http://purl.org/dc/elements/1.1/"
   xmlns:cc="http://creativecommons.org/ns#"
   xmlns:rdf="http://www.w3.org/1999/02/22-rdf-syntax-ns#"
   xmlns:svg="http://www.w3.org/2000/svg"
   xmlns="http://www.w3.org/2000/svg"
   xmlns:sodipodi="http://sodipodi.sourceforge.net/DTD/sodipodi-0.dtd"
   xmlns:inkscape="http://www.inkscape.org/namespaces/inkscape"
   version="1.1"
   id="Capa_1"
   x="0px"
   y="0px"
   width="512px"
   height="512px"
   viewBox="0 0 45.393 45.393"
   style="enable-background:new 0 0 45.393 45.393;"
   xml:space="preserve"
   sodipodi:docname="car-garage.svg"
   inkscape:version="0.92+devel unknown"><metadata
     id="metadata45"><rdf:RDF><cc:Work
         rdf:about=""><dc:format>image/svg+xml</dc:format><dc:type
           rdf:resource="http://purl.org/dc/dcmitype/StillImage" /></cc:Work></rdf:RDF></metadata><defs
     id="defs43" /><sodipodi:namedview
     pagecolor="#ffffff"
     bordercolor="#666666"
     inkscape:document-rotation="0"
     borderopacity="1"
     objecttolerance="10"
     gridtolerance="10"
     guidetolerance="10"
     inkscape:pageopacity="0"
     inkscape:pageshadow="2"
     inkscape:window-width="1920"
     inkscape:window-height="1016"
     id="namedview41"
     showgrid="false"
     inkscape:zoom="1.6328125"
     inkscape:cx="256"
     inkscape:cy="365.0954"
     inkscape:window-x="0"
     inkscape:window-y="0"
     inkscape:window-maximized="1"
     inkscape:current-layer="Capa_1" /><g
     id="g8"><g
       id="g6"><path
         d="M43.518,12.709L25.178,0.728c-1.511-0.978-3.458-0.968-4.96,0.021L1.859,12.719c-1.14,0.751-1.455,2.284-0.705,3.424    c0.751,1.14,2.283,1.456,3.424,0.704L22.715,5.021L40.83,16.857c0.416,0.269,0.881,0.396,1.341,0.396    c0.812,0,1.604-0.397,2.077-1.127C44.99,14.98,44.662,13.452,43.518,12.709z"
         fill="#aeaeae"
         id="path2" /><path
         d="M38.879,27.616c-0.151-0.865-0.903-1.505-1.78-1.505h-1.008l-0.383-3.987c-0.409-4.264-3.948-7.49-8.232-7.49H17.92    c-4.285,0-7.823,3.227-8.233,7.49l-0.382,3.987H8.296c-0.878,0-1.629,0.64-1.782,1.505l-1.5,8.504    c-0.186,1.054,0.112,2.139,0.8,2.957c0.662,0.788,1.637,1.258,2.657,1.293v1.412c0,1.999,1.602,3.61,3.603,3.61h1.138    c1.999,0,3.625-1.611,3.625-3.61v-1.389h11.732v1.386c0,2,1.613,3.613,3.612,3.613h1.139c1.999,0,3.614-1.613,3.614-3.613V40.37    c1.02-0.035,1.989-0.501,2.649-1.288c0.688-0.82,0.982-1.899,0.798-2.955L38.879,27.616z M11.642,37.113    c-1.687,0-3.055-1.367-3.055-3.056c0-1.689,1.368-3.057,3.055-3.057c1.688,0,3.057,1.367,3.057,3.057    C14.699,35.746,13.33,37.113,11.642,37.113z M12.404,26.111l0.353-3.678c0.257-2.674,2.476-4.688,5.163-4.688h0.551v1.156    c0,1.003,0.797,1.802,1.799,1.802h4.856c1.002,0,1.813-0.799,1.813-1.802v-1.155h0.537c2.687,0,4.906,2.014,5.162,4.688    l0.354,3.678L12.404,26.111L12.404,26.111z M33.75,37.113c-1.687,0-3.055-1.367-3.055-3.056c0-1.689,1.368-3.057,3.055-3.057    c1.688,0,3.057,1.367,3.057,3.057C36.807,35.746,35.438,37.113,33.75,37.113z"
         fill="#aeaeae"
         id="path4" /></g></g><g
     id="g10" /><g
     id="g12" /><g
     id="g14" /><g
     id="g16" /><g
     id="g18" /><g
     id="g20" /><g
     id="g22" /><g
     id="g24" /><g
     id="g26" /><g
     id="g28" /><g
     id="g30" /><g
     id="g32" /><g
     id="g34" /><g
     id="g36" /><g
     id="g38" /></svg>